<?xml version="1.0" encoding="utf-8"?>
<!-- Generator: Adobe Illustrator 21.0.0, SVG Export Plug-In . SVG Version: 6.00 Build 0)  -->
<svg version="1.1" id="Layer_1" xmlns="http://www.w3.org/2000/svg" xmlns:xlink="http://www.w3.org/1999/xlink" x="0px" y="0px"
	 width="113px" height="22px" viewBox="0 0 113 22" style="enable-background:new 0 0 113 22;" xml:space="preserve">
<style type="text/css">
	.st0{fill:none;}
	.st1{fill:#fff;}
</style>
<title>Logo</title>
<desc>Created with Sketch.</desc>
<g id="Page-1_1_">
	<g id="Innopolis_eng_NEW" transform="translate(-41.000000, -49.000000)">
		<g id="Group-3" transform="translate(0.000000, 38.000000)">
			<g id="Logo" transform="translate(41.000000, 11.000000)">
				<g id="Page-1">
					<g id="Clip-6">
					</g>
					<g id="Clip-11">
					</g>
				</g>
			</g>
		</g>
	</g>
</g>
<g>
	<path class="st0" d="M78.1,6.8H78l-2.9,0l-3,0c-0.1,0-0.2,0-0.2,0c0,0,0,0,0,0l0,0c-0.1,0-0.1,0-0.2,0c0,0,0,0-0.1,0l0,0
		c0,0-0.1,0-0.1,0.1c0,0,0,0-0.1,0l0,0c0,0-0.1,0.1-0.1,0.1c0,0,0,0-0.1,0.1c0,0-0.1,0.1-0.1,0.1c0,0,0,0,0,0.1c0,0,0,0.1-0.1,0.1
		c0,0,0,0.1,0,0.1c0,0,0,0.1,0,0.1l0,0c0,0,0,0.1,0,0.1C71,7.9,71,8,71,8l0,3.7c0,0.1,0,0.1,0,0.2l0,0l0,0c0,0,0,0.1,0,0.1
		c0,0,0,0.1,0,0.1l0,0c0,0,0,0,0,0.1c0,0,0,0.1,0.1,0.1l0,0l0,0l0,0c0,0,0,0,0,0.1c0,0,0.1,0.1,0.1,0.1l0,0l0,0c0,0,0,0,0,0
		c0,0,0.1,0.1,0.1,0.1l0,0l0,0c0,0,0,0,0.1,0c0,0,0.1,0,0.1,0.1l0,0l0,0c0,0,0,0,0.1,0c0,0,0.1,0,0.1,0c0,0,0,0,0,0c0,0,0,0,0.1,0
		c0.1,0,0.2,0,0.2,0l3,0l3,0c0.7,0,1.2-0.6,1.2-1.2l0-3.7C79.3,7.3,78.8,6.8,78.1,6.8z"/>
	<path class="st0" d="M45.9,7l-0.1,0l-2.8,0l-3,0c-0.1,0-0.2,0-0.2,0c0,0,0,0-0.1,0l0,0c-0.1,0-0.1,0-0.1,0c0,0,0,0-0.1,0l0,0
		c0,0-0.1,0-0.1,0.1c0,0,0,0-0.1,0l0,0c0,0-0.1,0.1-0.1,0.1c0,0,0,0-0.1,0.1c0,0-0.1,0.1-0.1,0.1c0,0,0,0.1-0.1,0.1
		c0,0,0,0.1-0.1,0.1c0,0,0,0.1,0,0.1c0,0,0,0.1,0,0.1c0,0,0,0.1,0,0.1c0,0.1,0,0.1,0,0.2l0,3.7c0,0.1,0,0.1,0,0.1l0,0l0,0
		c0,0,0,0.1,0,0.1c0,0,0,0.1,0,0.1l0,0l0,0c0,0,0,0.1,0,0.1c0,0,0,0.1,0,0.1l0,0l0,0c0,0,0,0.1,0,0.1c0,0,0,0,0.1,0.1l0,0l0,0
		c0,0,0,0,0.1,0.1c0,0,0.1,0,0.1,0.1l0,0l0,0c0,0,0,0,0.1,0c0,0,0.1,0,0.1,0.1l0,0l0,0c0,0,0,0,0.1,0c0,0,0.1,0,0.2,0c0,0,0,0,0,0
		c0,0,0,0,0,0c0.1,0,0.2,0,0.2,0l3,0l3,0c0.7,0,1.2-0.5,1.2-1.2l0-3.7C47.1,7.5,46.5,7,45.9,7z"/>
	<path class="st0" d="M61.9,6.9l-0.1,0l-5.8,0c-0.1,0-0.2,0-0.2,0c0,0,0,0,0,0l0,0c0,0-0.1,0-0.2,0.1c0,0,0,0,0,0l0,0
		c0,0-0.1,0-0.1,0.1c0,0,0,0,0,0l0,0c0,0-0.1,0.1-0.1,0.1c0,0,0,0-0.1,0.1c0,0-0.1,0.1-0.1,0.1c0,0,0,0,0,0.1c0,0,0,0.1-0.1,0.1
		c0,0,0,0.1,0,0.1c0,0,0,0.1,0,0.1l0,0c0,0,0,0,0,0.1c0,0.1,0,0.1,0,0.2l0,3.7c0,0.1,0,0.1,0,0.2l0,0l0,0c0,0,0,0.1,0,0.1
		c0,0,0,0.1,0,0.1l0,0c0,0,0,0,0,0.1c0,0,0,0.1,0.1,0.1l0,0c0,0,0,0,0,0.1c0,0,0.1,0.1,0.1,0.1l0,0c0,0,0,0,0,0c0,0,0.1,0.1,0.1,0.1
		l0,0l0,0c0,0,0,0,0,0c0,0,0.1,0,0.1,0.1l0,0l0,0c0,0,0,0,0.1,0c0,0,0.1,0,0.2,0c0,0,0,0,0,0c0,0,0,0,0,0c0.1,0,0.2,0,0.2,0l5.9,0
		c0.7,0,1.2-0.6,1.2-1.2l0-3.7C63.2,7.4,62.6,6.9,61.9,6.9z"/>
	<path class="st1" d="M46.4,4.8l-0.7,0l-2.9,0l-0.9,0l-2.7,0c-1.6,0-3.4,1.3-3.4,3l0,4.3l0,0.4c0,1.7,1.8,2.9,3.4,2.9l3.5,0l1.1,0
		l2.4,0c1.6,0,3.4-1.3,3.4-3l0-4.6C49.8,6.1,48,4.8,46.4,4.8z M45.9,13.1l-3,0l-3,0c-0.1,0-0.2,0-0.2,0c0,0,0,0,0,0c0,0,0,0,0,0
		c-0.1,0-0.1,0-0.2,0c0,0,0,0-0.1,0l0,0l0,0c0,0-0.1,0-0.1-0.1c0,0,0,0-0.1,0l0,0l0,0c0,0-0.1,0-0.1-0.1c0,0,0,0-0.1-0.1l0,0l0,0
		c0,0,0,0-0.1-0.1c0,0,0-0.1,0-0.1l0,0l0,0c0,0,0-0.1,0-0.1c0,0,0-0.1,0-0.1l0,0l0,0c0,0,0-0.1,0-0.1c0,0,0-0.1,0-0.1l0,0l0,0
		c0,0,0-0.1,0-0.1l0-3.7c0-0.1,0-0.2,0-0.2c0,0,0-0.1,0-0.1c0,0,0-0.1,0-0.1c0,0,0-0.1,0-0.1c0,0,0-0.1,0.1-0.1c0,0,0-0.1,0.1-0.1
		c0,0,0.1-0.1,0.1-0.1c0,0,0,0,0.1-0.1c0,0,0.1-0.1,0.1-0.1l0,0c0,0,0,0,0.1,0c0,0,0.1,0,0.1-0.1l0,0c0,0,0,0,0.1,0c0,0,0.1,0,0.1,0
		l0,0c0,0,0,0,0.1,0c0.1,0,0.2,0,0.2,0l3,0l2.8,0l0.1,0c0.7,0,1.2,0.5,1.2,1.2l0,3.7C47.1,12.6,46.6,13.1,45.9,13.1z"/>
	<path class="st1" d="M78.6,4.6l-0.7,0l-2.9,0l-0.9,0l-2.7,0c-1.6,0-3.4,1.3-3.4,3l0,4.3l0,0.4c0,1.7,1.8,2.9,3.4,2.9l3.5,0l1.1,0
		l2.4,0c1.6,0,3.4-1.3,3.4-3l0-4.6C82,5.9,80.2,4.6,78.6,4.6z M78.1,12.9l-3,0l-3,0c-0.1,0-0.2,0-0.2,0c0,0,0,0-0.1,0c0,0,0,0,0,0
		c-0.1,0-0.1,0-0.1,0c0,0,0,0-0.1,0l0,0l0,0c0,0-0.1,0-0.1-0.1c0,0,0,0-0.1,0l0,0l0,0c0,0-0.1,0-0.1-0.1c0,0,0,0,0,0l0,0l0,0
		c0,0-0.1-0.1-0.1-0.1c0,0,0,0,0-0.1l0,0l0,0l0,0c0,0,0-0.1-0.1-0.1c0,0,0,0,0-0.1l0,0c0,0,0-0.1,0-0.1c0,0,0-0.1,0-0.1l0,0l0,0
		c0,0,0-0.1,0-0.2L71,8c0-0.1,0-0.1,0-0.2c0,0,0-0.1,0-0.1l0,0c0,0,0-0.1,0-0.1c0,0,0-0.1,0-0.1c0,0,0-0.1,0.1-0.1c0,0,0,0,0-0.1
		c0,0,0.1-0.1,0.1-0.1c0,0,0,0,0.1-0.1c0,0,0.1-0.1,0.1-0.1l0,0c0,0,0,0,0.1,0c0,0,0.1-0.1,0.1-0.1l0,0c0,0,0,0,0.1,0
		c0,0,0.1,0,0.2,0l0,0c0,0,0,0,0,0c0.1,0,0.2,0,0.2,0l3,0l2.9,0h0.1c0.7,0,1.2,0.5,1.2,1.2l0,3.7C79.3,12.4,78.8,12.9,78.1,12.9z"/>
	<path class="st1" d="M2.7,5L2.5,5C1.1,5.1,0,6.2,0,7.6l0,7.9c0,0,0,0.1,0.1,0.1l2.7,0c0,0,0.1,0,0.1-0.1L2.7,5C2.8,5.1,2.8,5,2.7,5
		z"/>
	<path class="st1" d="M96.7,4.5l-0.2,0c-1.4,0-2.5,1.2-2.5,2.6l0,7.9c0,0,0,0.1,0.1,0.1l2.7,0c0,0,0.1,0,0.1-0.1L96.7,4.5
		C96.7,4.5,96.7,4.5,96.7,4.5z"/>
	<path class="st1" d="M62.5,4.7l-0.7,0l-3.7,0l-2.7,0c-1.6,0-3.4,1.3-3.4,3l0,4.3l0,0.4l0.1,9.5c0,0,0,0.1,0.1,0.1l0.2,0
		c1.4,0,2.5-1.2,2.5-2.6l0-4v-0.1l0.1,0c0,0,0,0,0,0c0,0,0,0,0,0c0.2,0,0.3,0,0.5,0l4.6,0l2.4,0c1.6,0,3.4-1.3,3.4-3l0-4.6
		C65.9,6,64,4.7,62.5,4.7z M62,13l-5.9,0c-0.1,0-0.2,0-0.2,0c0,0,0,0,0,0c0,0,0,0,0,0c-0.1,0-0.1,0-0.2,0c0,0,0,0-0.1,0l0,0l0,0
		c0,0-0.1,0-0.1-0.1c0,0,0,0,0,0l0,0l0,0c0,0-0.1,0-0.1-0.1c0,0,0,0,0,0l0,0c0,0-0.1-0.1-0.1-0.1c0,0,0,0,0-0.1l0,0
		c0,0,0-0.1-0.1-0.1c0,0,0,0,0-0.1l0,0c0,0,0-0.1,0-0.1c0,0,0-0.1,0-0.1l0,0l0,0c0-0.1,0-0.1,0-0.2l0-3.7c0-0.1,0-0.1,0-0.2
		c0,0,0,0,0-0.1l0,0c0-0.1,0-0.1,0-0.1c0,0,0-0.1,0-0.1c0,0,0-0.1,0.1-0.1c0,0,0,0,0-0.1c0,0,0.1-0.1,0.1-0.1c0,0,0,0,0.1-0.1
		c0,0,0.1-0.1,0.1-0.1l0,0c0,0,0,0,0,0c0,0,0.1-0.1,0.1-0.1l0,0c0,0,0,0,0,0c0.1,0,0.1,0,0.2-0.1l0,0c0,0,0,0,0,0c0.1,0,0.2,0,0.2,0
		l5.8,0l0.1,0c0.7,0,1.2,0.5,1.2,1.2l0,3.7C63.2,12.5,62.6,13,62,13z"/>
	<path class="st1" d="M109.7,8.8l-0.2,0l-6.7,0c-0.6,0-1.1-0.5-1.1-1.1c0-0.6,0.5-1.1,1.1-1.1c0,0,0,0,0,0l0,0c0,0,0,0,0,0l4.5,0
		l3.1,0c1,0,1.8-0.8,1.8-1.9l0-0.3c0,0,0-0.1-0.1-0.1l-4.9,0l-2,0l-2.6,0l0,0l-0.1,0l-0.1,0h0c-1.8,0-3.2,1.4-3.2,3.1
		c0,1.7,1.4,3,3.1,3.1l7.3,0c0.6,0,1.1,0.5,1.1,1.1c0,0.5-0.4,1-0.9,1.1c-0.1,0-0.1,0-0.2,0l-4.8,0l-3.8,0c-1,0-1.9,0.8-1.9,1.9
		l0,0.1c0,0.1,0.1,0.2,0.2,0.2l5.4,0l2,0l2.1,0l0.1,0v0l0.5,0c1.8,0,3.2-1.4,3.2-3.1C113,10.1,111.5,8.8,109.7,8.8z"/>
	<path class="st1" d="M33.6,6.9l0-1.9l0-0.1c0,0,0-0.1-0.1-0.1h-0.1l-0.2,0v0c-1.4,0-2.5,1.1-2.5,2.5h0l0,5.3c0,0.1-0.1,0.2-0.2,0.2
		c-0.1,0-0.1,0-0.1-0.1l-7.8-7.5C22.4,5,22.2,4.9,22,4.9l0,0v0l-1.9,0c-1,0-2.1,0.3-2.1,1.8l0,6c0,0.1-0.1,0.2-0.2,0.2
		c-0.1,0-0.1,0-0.1-0.1L9.8,5.4C9.5,5,9.3,5,9.1,5L7.2,5C5.9,5,5.1,5.9,5.1,7.2l0,8.2c0,0,0,0.1,0.1,0.1l2.7,0c0,0,0.1,0,0.1-0.1
		l0-8c0-0.1,0.1-0.2,0.2-0.2c0.1,0,0.1,0,0.1,0.1l7.3,7.1c0,0,0.1,0.1,0.1,0.1c0.4,0.4,0.9,0.9,1.4,0.9h0c0,0,1,0,1.4,0
		c0.3,0,1.3,0,1.3,0c0.6,0,1.1-0.5,1.1-1.1l0-7c0-0.1,0.1-0.2,0.2-0.2c0.1,0,0.1,0,0.1,0.1l7.3,7.1c0,0,0.1,0.1,0.1,0.1
		c0.4,0.4,0.9,0.9,1.4,0.8h0c0,0,0.9,0,1.2,0c0.4,0,1.4,0,1.5,0c0.6,0,1.1-0.5,1.1-1.1l0-3L33.6,6.9z"/>
	<path class="st1" d="M91.6,13.5l-2.5,0c-1,0-1.9-0.8-1.9-1.8L87.2,0.3C87.2,0.1,87.1,0,87,0c-1.4,0-2.5,1.2-2.5,2.6l0.1,9.6
		c0,1.7,1.8,2.9,3.4,2.9l2.7,0l1,0c0,0,0.1,0,0.1-0.1L91.6,13.5C91.7,13.5,91.7,13.5,91.6,13.5z"/>
</g>
</svg>
